<mxfile host="app.diagrams.net" modified="2023-12-11T15:12:19.082Z" agent="Mozilla/5.0 (Windows NT 10.0; Win64; x64; rv:120.0) Gecko/20100101 Firefox/120.0" etag="CNYFcxXFZnSaQoG0F3IM" version="22.1.7" type="github">
  <diagram name="Main" id="hejbSz8rhP2jBMmGpV_Z">
    <mxGraphModel dx="5185" dy="1955" grid="1" gridSize="10" guides="1" tooltips="1" connect="1" arrows="1" fold="1" page="1" pageScale="1" pageWidth="1600" pageHeight="900" math="0" shadow="0">
      <root>
        <mxCell id="0" />
        <mxCell id="1" parent="0" />
        <mxCell id="FBaTR2dOqeXt97CUkfPk-125" style="edgeStyle=orthogonalEdgeStyle;rounded=0;orthogonalLoop=1;jettySize=auto;html=1;exitX=0;exitY=0.5;exitDx=0;exitDy=0;entryX=1;entryY=0.5;entryDx=0;entryDy=0;fillColor=#f5f5f5;strokeColor=#666666;" edge="1" parent="1" source="FBaTR2dOqeXt97CUkfPk-7" target="FBaTR2dOqeXt97CUkfPk-39">
          <mxGeometry relative="1" as="geometry" />
        </mxCell>
        <mxCell id="FBaTR2dOqeXt97CUkfPk-7" value="" style="swimlane;startSize=0;fillColor=#f5f5f5;fontColor=#333333;strokeColor=#666666;" vertex="1" parent="1">
          <mxGeometry x="400" y="160" width="800" height="600" as="geometry" />
        </mxCell>
        <mxCell id="FBaTR2dOqeXt97CUkfPk-8" value="Codename: CHS" style="text;html=1;strokeColor=none;fillColor=none;align=center;verticalAlign=middle;whiteSpace=wrap;rounded=0;fontFamily=Special Elite;fontSource=https%3A%2F%2Ffonts.googleapis.com%2Fcss%3Ffamily%3DSpecial%2BElite;spacing=2;fontSize=37;horizontal=1;" vertex="1" parent="FBaTR2dOqeXt97CUkfPk-7">
          <mxGeometry x="5" y="30" width="285" height="80" as="geometry" />
        </mxCell>
        <mxCell id="FBaTR2dOqeXt97CUkfPk-9" value="Play" style="text;html=1;strokeColor=none;fillColor=none;align=center;verticalAlign=middle;whiteSpace=wrap;rounded=0;fontFamily=Special Elite;fontSource=https%3A%2F%2Ffonts.googleapis.com%2Fcss%3Ffamily%3DSpecial%2BElite;fontSize=28;" vertex="1" parent="FBaTR2dOqeXt97CUkfPk-7">
          <mxGeometry x="15" y="195" width="135" height="40" as="geometry" />
        </mxCell>
        <mxCell id="FBaTR2dOqeXt97CUkfPk-10" value="Settings" style="text;html=1;strokeColor=none;fillColor=none;align=center;verticalAlign=middle;whiteSpace=wrap;rounded=0;fontFamily=Special Elite;fontSource=https%3A%2F%2Ffonts.googleapis.com%2Fcss%3Ffamily%3DSpecial%2BElite;fontSize=28;" vertex="1" parent="FBaTR2dOqeXt97CUkfPk-7">
          <mxGeometry x="15" y="295" width="135" height="40" as="geometry" />
        </mxCell>
        <mxCell id="FBaTR2dOqeXt97CUkfPk-11" value="Exit" style="text;html=1;strokeColor=none;fillColor=none;align=left;verticalAlign=middle;whiteSpace=wrap;rounded=0;fontFamily=Special Elite;fontSource=https%3A%2F%2Ffonts.googleapis.com%2Fcss%3Ffamily%3DSpecial%2BElite;fontSize=29;" vertex="1" parent="FBaTR2dOqeXt97CUkfPk-7">
          <mxGeometry x="5" y="560" width="115" height="30" as="geometry" />
        </mxCell>
        <mxCell id="FBaTR2dOqeXt97CUkfPk-22" value="Continue" style="text;html=1;strokeColor=none;fillColor=none;align=center;verticalAlign=middle;whiteSpace=wrap;rounded=0;fontFamily=Special Elite;fontSource=https%3A%2F%2Ffonts.googleapis.com%2Fcss%3Ffamily%3DSpecial%2BElite;fontSize=28;" vertex="1" parent="FBaTR2dOqeXt97CUkfPk-7">
          <mxGeometry x="15" y="245" width="135" height="40" as="geometry" />
        </mxCell>
        <mxCell id="FBaTR2dOqeXt97CUkfPk-13" value="" style="swimlane;startSize=0;fillColor=#f8cecc;strokeColor=#b85450;" vertex="1" parent="1">
          <mxGeometry x="400" y="1000" width="800" height="600" as="geometry" />
        </mxCell>
        <mxCell id="FBaTR2dOqeXt97CUkfPk-17" value="&lt;font style=&quot;font-size: 25px;&quot;&gt;Back&lt;/font&gt;" style="text;html=1;strokeColor=none;fillColor=none;align=right;verticalAlign=middle;whiteSpace=wrap;rounded=0;fontFamily=Special Elite;fontSource=https%3A%2F%2Ffonts.googleapis.com%2Fcss%3Ffamily%3DSpecial%2BElite;" vertex="1" parent="FBaTR2dOqeXt97CUkfPk-13">
          <mxGeometry x="675" y="560" width="115" height="30" as="geometry" />
        </mxCell>
        <mxCell id="FBaTR2dOqeXt97CUkfPk-21" value="" style="swimlane;startSize=0;" vertex="1" parent="FBaTR2dOqeXt97CUkfPk-13">
          <mxGeometry x="440" y="120" width="240" height="360" as="geometry" />
        </mxCell>
        <mxCell id="FBaTR2dOqeXt97CUkfPk-26" value="Challange" style="text;html=1;strokeColor=none;fillColor=none;align=center;verticalAlign=middle;whiteSpace=wrap;rounded=0;fontFamily=Special Elite;fontSource=https%3A%2F%2Ffonts.googleapis.com%2Fcss%3Ffamily%3DSpecial%2BElite;fontSize=28;" vertex="1" parent="FBaTR2dOqeXt97CUkfPk-21">
          <mxGeometry x="40" y="30" width="160" height="45" as="geometry" />
        </mxCell>
        <mxCell id="FBaTR2dOqeXt97CUkfPk-28" value="Insert cool bild" style="text;html=1;strokeColor=none;fillColor=none;align=center;verticalAlign=middle;whiteSpace=wrap;rounded=0;" vertex="1" parent="FBaTR2dOqeXt97CUkfPk-21">
          <mxGeometry x="90" y="120" width="60" height="30" as="geometry" />
        </mxCell>
        <mxCell id="FBaTR2dOqeXt97CUkfPk-70" value="Pick Level" style="text;html=1;strokeColor=none;fillColor=none;align=center;verticalAlign=middle;whiteSpace=wrap;rounded=0;fontFamily=Special Elite;fontSource=https%3A%2F%2Ffonts.googleapis.com%2Fcss%3Ffamily%3DSpecial%2BElite;fontSize=28;" vertex="1" parent="FBaTR2dOqeXt97CUkfPk-21">
          <mxGeometry x="40" y="310" width="160" height="45" as="geometry" />
        </mxCell>
        <mxCell id="FBaTR2dOqeXt97CUkfPk-55" value="" style="swimlane;startSize=0;" vertex="1" parent="FBaTR2dOqeXt97CUkfPk-13">
          <mxGeometry x="120" y="120" width="240" height="360" as="geometry" />
        </mxCell>
        <mxCell id="FBaTR2dOqeXt97CUkfPk-56" value="Story" style="text;html=1;strokeColor=none;fillColor=none;align=center;verticalAlign=middle;whiteSpace=wrap;rounded=0;fontFamily=Special Elite;fontSource=https%3A%2F%2Ffonts.googleapis.com%2Fcss%3Ffamily%3DSpecial%2BElite;fontSize=28;" vertex="1" parent="FBaTR2dOqeXt97CUkfPk-55">
          <mxGeometry x="60" y="30" width="120" height="45" as="geometry" />
        </mxCell>
        <mxCell id="FBaTR2dOqeXt97CUkfPk-57" value="Insert cool bild" style="text;html=1;strokeColor=none;fillColor=none;align=center;verticalAlign=middle;whiteSpace=wrap;rounded=0;" vertex="1" parent="FBaTR2dOqeXt97CUkfPk-55">
          <mxGeometry x="90" y="120" width="60" height="30" as="geometry" />
        </mxCell>
        <mxCell id="FBaTR2dOqeXt97CUkfPk-58" value="Load" style="text;html=1;strokeColor=none;fillColor=none;align=center;verticalAlign=middle;whiteSpace=wrap;rounded=0;fontFamily=Special Elite;fontSource=https%3A%2F%2Ffonts.googleapis.com%2Fcss%3Ffamily%3DSpecial%2BElite;fontSize=28;" vertex="1" parent="FBaTR2dOqeXt97CUkfPk-55">
          <mxGeometry x="60" y="310" width="120" height="45" as="geometry" />
        </mxCell>
        <mxCell id="FBaTR2dOqeXt97CUkfPk-59" value="New" style="text;html=1;strokeColor=none;fillColor=none;align=center;verticalAlign=middle;whiteSpace=wrap;rounded=0;fontFamily=Special Elite;fontSource=https%3A%2F%2Ffonts.googleapis.com%2Fcss%3Ffamily%3DSpecial%2BElite;fontSize=28;" vertex="1" parent="FBaTR2dOqeXt97CUkfPk-55">
          <mxGeometry x="60" y="255" width="120" height="45" as="geometry" />
        </mxCell>
        <mxCell id="FBaTR2dOqeXt97CUkfPk-124" style="edgeStyle=orthogonalEdgeStyle;rounded=0;orthogonalLoop=1;jettySize=auto;html=1;exitX=1;exitY=0.5;exitDx=0;exitDy=0;entryX=0;entryY=0.5;entryDx=0;entryDy=0;fillColor=#f5f5f5;strokeColor=#666666;" edge="1" parent="1" source="FBaTR2dOqeXt97CUkfPk-39" target="FBaTR2dOqeXt97CUkfPk-7">
          <mxGeometry relative="1" as="geometry" />
        </mxCell>
        <mxCell id="FBaTR2dOqeXt97CUkfPk-39" value="" style="swimlane;startSize=0;fillColor=#f5f5f5;fontColor=#333333;strokeColor=#666666;" vertex="1" parent="1">
          <mxGeometry x="-1200" y="160" width="800" height="600" as="geometry" />
        </mxCell>
        <mxCell id="FBaTR2dOqeXt97CUkfPk-40" value="Codename: CHS" style="text;html=1;strokeColor=none;fillColor=none;align=center;verticalAlign=middle;whiteSpace=wrap;rounded=0;fontFamily=Special Elite;fontSource=https%3A%2F%2Ffonts.googleapis.com%2Fcss%3Ffamily%3DSpecial%2BElite;spacing=2;fontSize=37;horizontal=1;" vertex="1" parent="FBaTR2dOqeXt97CUkfPk-39">
          <mxGeometry x="5" y="30" width="285" height="80" as="geometry" />
        </mxCell>
        <mxCell id="FBaTR2dOqeXt97CUkfPk-41" value="Play" style="text;html=1;strokeColor=none;fillColor=none;align=center;verticalAlign=middle;whiteSpace=wrap;rounded=0;fontFamily=Special Elite;fontSource=https%3A%2F%2Ffonts.googleapis.com%2Fcss%3Ffamily%3DSpecial%2BElite;fontSize=28;" vertex="1" parent="FBaTR2dOqeXt97CUkfPk-39">
          <mxGeometry x="15" y="195" width="135" height="40" as="geometry" />
        </mxCell>
        <mxCell id="FBaTR2dOqeXt97CUkfPk-42" value="Settings" style="text;html=1;strokeColor=none;fillColor=none;align=center;verticalAlign=middle;whiteSpace=wrap;rounded=0;fontFamily=Special Elite;fontSource=https%3A%2F%2Ffonts.googleapis.com%2Fcss%3Ffamily%3DSpecial%2BElite;fontSize=28;" vertex="1" parent="FBaTR2dOqeXt97CUkfPk-39">
          <mxGeometry x="15" y="295" width="135" height="40" as="geometry" />
        </mxCell>
        <mxCell id="FBaTR2dOqeXt97CUkfPk-43" value="Exit" style="text;html=1;strokeColor=none;fillColor=none;align=left;verticalAlign=middle;whiteSpace=wrap;rounded=0;fontFamily=Special Elite;fontSource=https%3A%2F%2Ffonts.googleapis.com%2Fcss%3Ffamily%3DSpecial%2BElite;fontSize=29;" vertex="1" parent="FBaTR2dOqeXt97CUkfPk-39">
          <mxGeometry x="5" y="560" width="115" height="30" as="geometry" />
        </mxCell>
        <mxCell id="FBaTR2dOqeXt97CUkfPk-44" value="New Game" style="text;html=1;strokeColor=none;fillColor=none;align=center;verticalAlign=middle;whiteSpace=wrap;rounded=0;fontFamily=Special Elite;fontSource=https%3A%2F%2Ffonts.googleapis.com%2Fcss%3Ffamily%3DSpecial%2BElite;fontSize=28;" vertex="1" parent="FBaTR2dOqeXt97CUkfPk-39">
          <mxGeometry x="15" y="245" width="135" height="40" as="geometry" />
        </mxCell>
        <mxCell id="FBaTR2dOqeXt97CUkfPk-60" value="" style="swimlane;startSize=0;fillColor=#e1d5e7;strokeColor=#9673a6;" vertex="1" parent="1">
          <mxGeometry x="400" y="1920" width="800" height="560" as="geometry" />
        </mxCell>
        <mxCell id="FBaTR2dOqeXt97CUkfPk-61" value="&lt;font style=&quot;font-size: 25px;&quot;&gt;Back&lt;/font&gt;" style="text;html=1;strokeColor=none;fillColor=none;align=right;verticalAlign=middle;whiteSpace=wrap;rounded=0;fontFamily=Special Elite;fontSource=https%3A%2F%2Ffonts.googleapis.com%2Fcss%3Ffamily%3DSpecial%2BElite;" vertex="1" parent="FBaTR2dOqeXt97CUkfPk-60">
          <mxGeometry x="680" y="523" width="115" height="30" as="geometry" />
        </mxCell>
        <mxCell id="FBaTR2dOqeXt97CUkfPk-62" value="" style="swimlane;startSize=0;" vertex="1" parent="FBaTR2dOqeXt97CUkfPk-60">
          <mxGeometry x="550" y="120" width="220" height="360" as="geometry" />
        </mxCell>
        <mxCell id="FBaTR2dOqeXt97CUkfPk-63" value="Level 3" style="text;html=1;strokeColor=none;fillColor=none;align=center;verticalAlign=middle;whiteSpace=wrap;rounded=0;fontFamily=Special Elite;fontSource=https%3A%2F%2Ffonts.googleapis.com%2Fcss%3Ffamily%3DSpecial%2BElite;fontSize=28;" vertex="1" parent="FBaTR2dOqeXt97CUkfPk-62">
          <mxGeometry y="40" width="220" height="45" as="geometry" />
        </mxCell>
        <mxCell id="FBaTR2dOqeXt97CUkfPk-64" value="Insert cool bild" style="text;html=1;strokeColor=none;fillColor=none;align=center;verticalAlign=middle;whiteSpace=wrap;rounded=0;" vertex="1" parent="FBaTR2dOqeXt97CUkfPk-62">
          <mxGeometry x="80" y="120" width="60" height="30" as="geometry" />
        </mxCell>
        <mxCell id="FBaTR2dOqeXt97CUkfPk-105" value="Play" style="text;html=1;strokeColor=none;fillColor=none;align=center;verticalAlign=middle;whiteSpace=wrap;rounded=0;fontFamily=Special Elite;fontSource=https%3A%2F%2Ffonts.googleapis.com%2Fcss%3Ffamily%3DSpecial%2BElite;fontSize=28;" vertex="1" parent="FBaTR2dOqeXt97CUkfPk-62">
          <mxGeometry x="50" y="315" width="120" height="45" as="geometry" />
        </mxCell>
        <mxCell id="FBaTR2dOqeXt97CUkfPk-65" value="" style="swimlane;startSize=0;" vertex="1" parent="FBaTR2dOqeXt97CUkfPk-60">
          <mxGeometry x="30" y="120" width="220" height="360" as="geometry" />
        </mxCell>
        <mxCell id="FBaTR2dOqeXt97CUkfPk-66" value="Level 1" style="text;html=1;strokeColor=none;fillColor=none;align=center;verticalAlign=middle;whiteSpace=wrap;rounded=0;fontFamily=Special Elite;fontSource=https%3A%2F%2Ffonts.googleapis.com%2Fcss%3Ffamily%3DSpecial%2BElite;fontSize=28;" vertex="1" parent="FBaTR2dOqeXt97CUkfPk-65">
          <mxGeometry y="30" width="220" height="45" as="geometry" />
        </mxCell>
        <mxCell id="FBaTR2dOqeXt97CUkfPk-67" value="Insert cool bild" style="text;html=1;strokeColor=none;fillColor=none;align=center;verticalAlign=middle;whiteSpace=wrap;rounded=0;" vertex="1" parent="FBaTR2dOqeXt97CUkfPk-65">
          <mxGeometry x="80" y="120" width="60" height="30" as="geometry" />
        </mxCell>
        <mxCell id="FBaTR2dOqeXt97CUkfPk-68" value="Play" style="text;html=1;strokeColor=none;fillColor=none;align=center;verticalAlign=middle;whiteSpace=wrap;rounded=0;fontFamily=Special Elite;fontSource=https%3A%2F%2Ffonts.googleapis.com%2Fcss%3Ffamily%3DSpecial%2BElite;fontSize=28;" vertex="1" parent="FBaTR2dOqeXt97CUkfPk-65">
          <mxGeometry x="50" y="315" width="120" height="45" as="geometry" />
        </mxCell>
        <mxCell id="FBaTR2dOqeXt97CUkfPk-75" value="Easy" style="rounded=1;html=1;align=left;fontSize=17;spacingLeft=10;sketch=0;hachureGap=4;pointerEvents=0;fontFamily=Special Elite;fontSource=https%3A%2F%2Ffonts.googleapis.com%2Fcss%3Ffamily%3DSpecial%2BElite;strokeColor=default;" vertex="1" parent="FBaTR2dOqeXt97CUkfPk-60">
          <mxGeometry x="5" y="510" width="125" height="43" as="geometry" />
        </mxCell>
        <mxCell id="FBaTR2dOqeXt97CUkfPk-76" value="" style="shape=triangle;direction=south;fillColor=#ffffff;strokeColor=none;html=1;sketch=1;hachureGap=4;pointerEvents=0;fontFamily=Architects Daughter;fontSource=https%3A%2F%2Ffonts.googleapis.com%2Fcss%3Ffamily%3DArchitects%2BDaughter;fontSize=20;" vertex="1" parent="FBaTR2dOqeXt97CUkfPk-75">
          <mxGeometry x="1" y="0.5" width="12" height="6" relative="1" as="geometry">
            <mxPoint x="-20" y="-3" as="offset" />
          </mxGeometry>
        </mxCell>
        <mxCell id="FBaTR2dOqeXt97CUkfPk-77" value="" style="rounded=1;fillColor=#ffffff;strokeColor=#DFE1E5;shadow=1;html=1;arcSize=4;sketch=1;hachureGap=4;pointerEvents=0;fontFamily=Architects Daughter;fontSource=https%3A%2F%2Ffonts.googleapis.com%2Fcss%3Ffamily%3DArchitects%2BDaughter;fontSize=20;" vertex="1" parent="FBaTR2dOqeXt97CUkfPk-60">
          <mxGeometry y="570" width="110" height="144" as="geometry" />
        </mxCell>
        <mxCell id="FBaTR2dOqeXt97CUkfPk-78" value="Easy" style="rounded=0;fillColor=#F4F5F7;strokeColor=none;shadow=0;html=1;align=left;fontSize=12;spacingLeft=10;fontColor=#253858;resizeWidth=1;sketch=1;hachureGap=4;pointerEvents=0;fontFamily=Special Elite;fontSource=https%3A%2F%2Ffonts.googleapis.com%2Fcss%3Ffamily%3DSpecial%2BElite;" vertex="1" parent="FBaTR2dOqeXt97CUkfPk-77">
          <mxGeometry width="110" height="33" relative="1" as="geometry">
            <mxPoint y="6" as="offset" />
          </mxGeometry>
        </mxCell>
        <mxCell id="FBaTR2dOqeXt97CUkfPk-79" value="Normal" style="rounded=0;fillColor=none;strokeColor=none;shadow=0;html=1;align=left;fontSize=12;spacingLeft=10;fontColor=#253858;resizeWidth=1;sketch=1;hachureGap=4;pointerEvents=0;fontFamily=Special Elite;fontSource=https%3A%2F%2Ffonts.googleapis.com%2Fcss%3Ffamily%3DSpecial%2BElite;" vertex="1" parent="FBaTR2dOqeXt97CUkfPk-77">
          <mxGeometry width="110" height="33" relative="1" as="geometry">
            <mxPoint y="39" as="offset" />
          </mxGeometry>
        </mxCell>
        <mxCell id="FBaTR2dOqeXt97CUkfPk-80" value="Hard" style="rounded=0;fillColor=none;strokeColor=none;shadow=0;html=1;align=left;fontSize=12;spacingLeft=10;fontColor=#253858;resizeWidth=1;sketch=1;hachureGap=4;pointerEvents=0;fontFamily=Special Elite;fontSource=https%3A%2F%2Ffonts.googleapis.com%2Fcss%3Ffamily%3DSpecial%2BElite;" vertex="1" parent="FBaTR2dOqeXt97CUkfPk-77">
          <mxGeometry width="110" height="33" relative="1" as="geometry">
            <mxPoint y="72" as="offset" />
          </mxGeometry>
        </mxCell>
        <mxCell id="FBaTR2dOqeXt97CUkfPk-81" value="Nightmare" style="rounded=0;fillColor=none;strokeColor=none;shadow=0;html=1;align=left;fontSize=12;spacingLeft=10;fontColor=#253858;resizeWidth=1;sketch=1;hachureGap=4;pointerEvents=0;fontFamily=Special Elite;fontSource=https%3A%2F%2Ffonts.googleapis.com%2Fcss%3Ffamily%3DSpecial%2BElite;" vertex="1" parent="FBaTR2dOqeXt97CUkfPk-77">
          <mxGeometry width="110" height="33" relative="1" as="geometry">
            <mxPoint y="105" as="offset" />
          </mxGeometry>
        </mxCell>
        <mxCell id="FBaTR2dOqeXt97CUkfPk-106" value="" style="swimlane;startSize=0;" vertex="1" parent="FBaTR2dOqeXt97CUkfPk-60">
          <mxGeometry x="290" y="120" width="220" height="360" as="geometry" />
        </mxCell>
        <mxCell id="FBaTR2dOqeXt97CUkfPk-107" value="Level 2" style="text;html=1;strokeColor=none;fillColor=none;align=center;verticalAlign=middle;whiteSpace=wrap;rounded=0;fontFamily=Special Elite;fontSource=https%3A%2F%2Ffonts.googleapis.com%2Fcss%3Ffamily%3DSpecial%2BElite;fontSize=28;" vertex="1" parent="FBaTR2dOqeXt97CUkfPk-106">
          <mxGeometry y="30" width="220" height="45" as="geometry" />
        </mxCell>
        <mxCell id="FBaTR2dOqeXt97CUkfPk-108" value="Insert cool bild" style="text;html=1;strokeColor=none;fillColor=none;align=center;verticalAlign=middle;whiteSpace=wrap;rounded=0;" vertex="1" parent="FBaTR2dOqeXt97CUkfPk-106">
          <mxGeometry x="80" y="120" width="60" height="30" as="geometry" />
        </mxCell>
        <mxCell id="FBaTR2dOqeXt97CUkfPk-109" value="Play" style="text;html=1;strokeColor=none;fillColor=none;align=center;verticalAlign=middle;whiteSpace=wrap;rounded=0;fontFamily=Special Elite;fontSource=https%3A%2F%2Ffonts.googleapis.com%2Fcss%3Ffamily%3DSpecial%2BElite;fontSize=28;" vertex="1" parent="FBaTR2dOqeXt97CUkfPk-106">
          <mxGeometry x="50" y="315" width="120" height="45" as="geometry" />
        </mxCell>
        <mxCell id="FBaTR2dOqeXt97CUkfPk-97" style="edgeStyle=orthogonalEdgeStyle;rounded=0;orthogonalLoop=1;jettySize=auto;html=1;exitX=0.5;exitY=1;exitDx=0;exitDy=0;entryX=0.5;entryY=0;entryDx=0;entryDy=0;fillColor=#e1d5e7;strokeColor=#9673a6;" edge="1" parent="1" source="FBaTR2dOqeXt97CUkfPk-21" target="FBaTR2dOqeXt97CUkfPk-60">
          <mxGeometry relative="1" as="geometry" />
        </mxCell>
        <mxCell id="FBaTR2dOqeXt97CUkfPk-98" style="edgeStyle=orthogonalEdgeStyle;rounded=0;orthogonalLoop=1;jettySize=auto;html=1;entryX=0.5;entryY=0;entryDx=0;entryDy=0;fillColor=#f8cecc;strokeColor=#b85450;" edge="1" parent="1" source="FBaTR2dOqeXt97CUkfPk-9" target="FBaTR2dOqeXt97CUkfPk-13">
          <mxGeometry relative="1" as="geometry">
            <Array as="points">
              <mxPoint x="350" y="375" />
              <mxPoint x="350" y="910" />
              <mxPoint x="800" y="910" />
            </Array>
          </mxGeometry>
        </mxCell>
        <mxCell id="FBaTR2dOqeXt97CUkfPk-99" value="&lt;h1&gt;Main - Alt&lt;br&gt;&lt;/h1&gt;&lt;p&gt;Either when the player first opens the game or when the player has finished a game&lt;br&gt;&lt;/p&gt;" style="text;html=1;strokeColor=#666666;fillColor=#f5f5f5;spacing=5;spacingTop=-20;whiteSpace=wrap;overflow=hidden;rounded=0;fontColor=#333333;" vertex="1" parent="1">
          <mxGeometry x="-400" y="160" width="190" height="120" as="geometry" />
        </mxCell>
        <mxCell id="FBaTR2dOqeXt97CUkfPk-101" value="&lt;h1&gt;Main&lt;/h1&gt;&lt;p&gt;The usual main menu UI&lt;br&gt;&lt;/p&gt;" style="text;html=1;spacing=5;spacingTop=-20;whiteSpace=wrap;overflow=hidden;rounded=0;fillColor=#f5f5f5;fontColor=#333333;strokeColor=#666666;" vertex="1" parent="1">
          <mxGeometry x="1200" y="160" width="190" height="120" as="geometry" />
        </mxCell>
        <mxCell id="FBaTR2dOqeXt97CUkfPk-102" value="&lt;h1&gt;Play&lt;/h1&gt;&lt;p&gt;The play selection screen menu.&lt;/p&gt;" style="text;html=1;strokeColor=#b85450;fillColor=#f8cecc;spacing=5;spacingTop=-20;whiteSpace=wrap;overflow=hidden;rounded=0;" vertex="1" parent="1">
          <mxGeometry x="1200" y="1000" width="190" height="120" as="geometry" />
        </mxCell>
        <mxCell id="FBaTR2dOqeXt97CUkfPk-104" value="&lt;h1&gt;Challenge&lt;/h1&gt;&lt;p&gt;Challenge level selection screen.&lt;br&gt;&lt;/p&gt;" style="text;html=1;strokeColor=#9673a6;fillColor=#e1d5e7;spacing=5;spacingTop=-20;whiteSpace=wrap;overflow=hidden;rounded=0;" vertex="1" parent="1">
          <mxGeometry x="1200" y="1920" width="190" height="120" as="geometry" />
        </mxCell>
        <mxCell id="FBaTR2dOqeXt97CUkfPk-110" value="" style="swimlane;startSize=0;fillColor=#dae8fc;strokeColor=#6c8ebf;" vertex="1" parent="1">
          <mxGeometry x="-1200" y="1000" width="800" height="600" as="geometry" />
        </mxCell>
        <mxCell id="FBaTR2dOqeXt97CUkfPk-111" value="&lt;font style=&quot;font-size: 25px;&quot;&gt;Back&lt;/font&gt;" style="text;html=1;strokeColor=none;fillColor=none;align=right;verticalAlign=middle;whiteSpace=wrap;rounded=0;fontFamily=Special Elite;fontSource=https%3A%2F%2Ffonts.googleapis.com%2Fcss%3Ffamily%3DSpecial%2BElite;" vertex="1" parent="FBaTR2dOqeXt97CUkfPk-110">
          <mxGeometry x="675" y="560" width="115" height="30" as="geometry" />
        </mxCell>
        <mxCell id="FBaTR2dOqeXt97CUkfPk-112" value="" style="swimlane;startSize=0;" vertex="1" parent="FBaTR2dOqeXt97CUkfPk-110">
          <mxGeometry x="440" y="120" width="240" height="360" as="geometry" />
        </mxCell>
        <mxCell id="FBaTR2dOqeXt97CUkfPk-113" value="Challange" style="text;html=1;strokeColor=none;fillColor=none;align=center;verticalAlign=middle;whiteSpace=wrap;rounded=0;fontFamily=Special Elite;fontSource=https%3A%2F%2Ffonts.googleapis.com%2Fcss%3Ffamily%3DSpecial%2BElite;fontSize=28;" vertex="1" parent="FBaTR2dOqeXt97CUkfPk-112">
          <mxGeometry x="40" y="30" width="160" height="45" as="geometry" />
        </mxCell>
        <mxCell id="FBaTR2dOqeXt97CUkfPk-114" value="Insert cool bild" style="text;html=1;strokeColor=none;fillColor=none;align=center;verticalAlign=middle;whiteSpace=wrap;rounded=0;" vertex="1" parent="FBaTR2dOqeXt97CUkfPk-112">
          <mxGeometry x="90" y="120" width="60" height="30" as="geometry" />
        </mxCell>
        <mxCell id="FBaTR2dOqeXt97CUkfPk-115" value="Pick Level" style="text;html=1;strokeColor=none;fillColor=none;align=center;verticalAlign=middle;whiteSpace=wrap;rounded=0;fontFamily=Special Elite;fontSource=https%3A%2F%2Ffonts.googleapis.com%2Fcss%3Ffamily%3DSpecial%2BElite;fontSize=28;" vertex="1" parent="FBaTR2dOqeXt97CUkfPk-112">
          <mxGeometry x="40" y="310" width="160" height="45" as="geometry" />
        </mxCell>
        <mxCell id="FBaTR2dOqeXt97CUkfPk-116" value="" style="swimlane;startSize=0;" vertex="1" parent="FBaTR2dOqeXt97CUkfPk-110">
          <mxGeometry x="120" y="120" width="240" height="360" as="geometry" />
        </mxCell>
        <mxCell id="FBaTR2dOqeXt97CUkfPk-117" value="Story" style="text;html=1;strokeColor=none;fillColor=none;align=center;verticalAlign=middle;whiteSpace=wrap;rounded=0;fontFamily=Special Elite;fontSource=https%3A%2F%2Ffonts.googleapis.com%2Fcss%3Ffamily%3DSpecial%2BElite;fontSize=28;" vertex="1" parent="FBaTR2dOqeXt97CUkfPk-116">
          <mxGeometry x="60" y="30" width="120" height="45" as="geometry" />
        </mxCell>
        <mxCell id="FBaTR2dOqeXt97CUkfPk-118" value="Insert cool bild" style="text;html=1;strokeColor=none;fillColor=none;align=center;verticalAlign=middle;whiteSpace=wrap;rounded=0;" vertex="1" parent="FBaTR2dOqeXt97CUkfPk-116">
          <mxGeometry x="90" y="120" width="60" height="30" as="geometry" />
        </mxCell>
        <mxCell id="FBaTR2dOqeXt97CUkfPk-119" value="Load" style="text;html=1;strokeColor=none;fillColor=none;align=center;verticalAlign=middle;whiteSpace=wrap;rounded=0;fontFamily=Special Elite;fontSource=https%3A%2F%2Ffonts.googleapis.com%2Fcss%3Ffamily%3DSpecial%2BElite;fontSize=28;" vertex="1" parent="FBaTR2dOqeXt97CUkfPk-116">
          <mxGeometry x="60" y="310" width="120" height="45" as="geometry" />
        </mxCell>
        <mxCell id="FBaTR2dOqeXt97CUkfPk-120" value="New" style="text;html=1;strokeColor=none;fillColor=none;align=center;verticalAlign=middle;whiteSpace=wrap;rounded=0;fontFamily=Special Elite;fontSource=https%3A%2F%2Ffonts.googleapis.com%2Fcss%3Ffamily%3DSpecial%2BElite;fontSize=28;" vertex="1" parent="FBaTR2dOqeXt97CUkfPk-116">
          <mxGeometry x="60" y="255" width="120" height="45" as="geometry" />
        </mxCell>
        <mxCell id="FBaTR2dOqeXt97CUkfPk-121" style="edgeStyle=orthogonalEdgeStyle;rounded=0;orthogonalLoop=1;jettySize=auto;html=1;fillColor=#dae8fc;strokeColor=#6c8ebf;exitX=-0.037;exitY=0.5;exitDx=0;exitDy=0;exitPerimeter=0;entryX=0.5;entryY=0;entryDx=0;entryDy=0;" edge="1" parent="1" source="FBaTR2dOqeXt97CUkfPk-44" target="FBaTR2dOqeXt97CUkfPk-110">
          <mxGeometry relative="1" as="geometry">
            <mxPoint x="-1210" y="425" as="sourcePoint" />
            <Array as="points">
              <mxPoint x="-1230" y="425" />
              <mxPoint x="-1230" y="790" />
              <mxPoint x="-800" y="790" />
            </Array>
          </mxGeometry>
        </mxCell>
        <mxCell id="FBaTR2dOqeXt97CUkfPk-123" style="edgeStyle=orthogonalEdgeStyle;rounded=0;orthogonalLoop=1;jettySize=auto;html=1;exitX=0;exitY=0.5;exitDx=0;exitDy=0;entryX=1.002;entryY=0.487;entryDx=0;entryDy=0;entryPerimeter=0;fillColor=#dae8fc;strokeColor=#6c8ebf;" edge="1" parent="1" source="FBaTR2dOqeXt97CUkfPk-59" target="FBaTR2dOqeXt97CUkfPk-110">
          <mxGeometry relative="1" as="geometry">
            <Array as="points">
              <mxPoint x="90" y="1398" />
              <mxPoint x="90" y="1292" />
            </Array>
          </mxGeometry>
        </mxCell>
        <mxCell id="FBaTR2dOqeXt97CUkfPk-126" value="" style="swimlane;startSize=0;fillColor=#6d8764;strokeColor=#3A5431;fontColor=#ffffff;" vertex="1" parent="1">
          <mxGeometry x="2000" y="160" width="800" height="600" as="geometry" />
        </mxCell>
        <mxCell id="FBaTR2dOqeXt97CUkfPk-137" style="edgeStyle=orthogonalEdgeStyle;rounded=0;orthogonalLoop=1;jettySize=auto;html=1;exitX=0.5;exitY=0;exitDx=0;exitDy=0;entryX=0;entryY=0.5;entryDx=0;entryDy=0;fillColor=#6d8764;strokeColor=#3A5431;" edge="1" parent="FBaTR2dOqeXt97CUkfPk-126" source="FBaTR2dOqeXt97CUkfPk-128" target="FBaTR2dOqeXt97CUkfPk-126">
          <mxGeometry relative="1" as="geometry">
            <Array as="points">
              <mxPoint x="160" y="-40" />
              <mxPoint x="-40" y="-40" />
              <mxPoint x="-40" y="300" />
            </Array>
          </mxGeometry>
        </mxCell>
        <mxCell id="FBaTR2dOqeXt97CUkfPk-128" value="General" style="text;html=1;align=center;verticalAlign=middle;whiteSpace=wrap;rounded=0;fontFamily=Special Elite;fontSource=https%3A%2F%2Ffonts.googleapis.com%2Fcss%3Ffamily%3DSpecial%2BElite;fontSize=28;" vertex="1" parent="FBaTR2dOqeXt97CUkfPk-126">
          <mxGeometry x="90" y="20" width="140" height="40" as="geometry" />
        </mxCell>
        <mxCell id="FBaTR2dOqeXt97CUkfPk-129" value="Controls" style="text;html=1;strokeColor=none;fillColor=none;align=center;verticalAlign=middle;whiteSpace=wrap;rounded=0;fontFamily=Special Elite;fontSource=https%3A%2F%2Ffonts.googleapis.com%2Fcss%3Ffamily%3DSpecial%2BElite;fontSize=28;" vertex="1" parent="FBaTR2dOqeXt97CUkfPk-126">
          <mxGeometry x="570" y="20" width="140" height="40" as="geometry" />
        </mxCell>
        <mxCell id="FBaTR2dOqeXt97CUkfPk-130" value="Exit" style="text;html=1;strokeColor=none;fillColor=none;align=right;verticalAlign=middle;whiteSpace=wrap;rounded=0;fontFamily=Special Elite;fontSource=https%3A%2F%2Ffonts.googleapis.com%2Fcss%3Ffamily%3DSpecial%2BElite;fontSize=29;" vertex="1" parent="FBaTR2dOqeXt97CUkfPk-126">
          <mxGeometry x="670" y="560" width="115" height="30" as="geometry" />
        </mxCell>
        <mxCell id="FBaTR2dOqeXt97CUkfPk-131" value="&lt;div&gt;Graphics&lt;/div&gt;" style="text;html=1;strokeColor=none;fillColor=none;align=center;verticalAlign=middle;whiteSpace=wrap;rounded=0;fontFamily=Special Elite;fontSource=https%3A%2F%2Ffonts.googleapis.com%2Fcss%3Ffamily%3DSpecial%2BElite;fontSize=28;" vertex="1" parent="FBaTR2dOqeXt97CUkfPk-126">
          <mxGeometry x="250" y="20" width="140" height="40" as="geometry" />
        </mxCell>
        <mxCell id="FBaTR2dOqeXt97CUkfPk-136" value="Audio" style="text;html=1;strokeColor=none;fillColor=none;align=center;verticalAlign=middle;whiteSpace=wrap;rounded=0;fontFamily=Special Elite;fontSource=https%3A%2F%2Ffonts.googleapis.com%2Fcss%3Ffamily%3DSpecial%2BElite;fontSize=28;" vertex="1" parent="FBaTR2dOqeXt97CUkfPk-126">
          <mxGeometry x="410" y="20" width="140" height="40" as="geometry" />
        </mxCell>
        <mxCell id="FBaTR2dOqeXt97CUkfPk-132" style="edgeStyle=orthogonalEdgeStyle;rounded=0;orthogonalLoop=1;jettySize=auto;html=1;exitX=0;exitY=0.5;exitDx=0;exitDy=0;entryX=0;entryY=0.5;entryDx=0;entryDy=0;fillColor=#6d8764;strokeColor=#3A5431;" edge="1" parent="1" source="FBaTR2dOqeXt97CUkfPk-10" target="FBaTR2dOqeXt97CUkfPk-126">
          <mxGeometry relative="1" as="geometry">
            <Array as="points">
              <mxPoint x="370" y="475" />
              <mxPoint x="370" y="820" />
              <mxPoint x="1275" y="820" />
              <mxPoint x="1275" y="460" />
            </Array>
          </mxGeometry>
        </mxCell>
        <mxCell id="FBaTR2dOqeXt97CUkfPk-133" value="&lt;h1&gt;Settings - General&lt;br&gt;&lt;/h1&gt;&lt;p&gt;The general settings&lt;br&gt;&lt;/p&gt;" style="text;html=1;strokeColor=#3A5431;fillColor=#6d8764;spacing=5;spacingTop=-20;whiteSpace=wrap;overflow=hidden;rounded=0;fontColor=#ffffff;" vertex="1" parent="1">
          <mxGeometry x="2800" y="160" width="230" height="120" as="geometry" />
        </mxCell>
        <mxCell id="FBaTR2dOqeXt97CUkfPk-138" style="edgeStyle=orthogonalEdgeStyle;rounded=0;orthogonalLoop=1;jettySize=auto;html=1;exitX=0;exitY=0.5;exitDx=0;exitDy=0;fillColor=#f8cecc;strokeColor=#b85450;" edge="1" parent="1" source="FBaTR2dOqeXt97CUkfPk-41" target="FBaTR2dOqeXt97CUkfPk-13">
          <mxGeometry relative="1" as="geometry">
            <Array as="points">
              <mxPoint x="-1250" y="375" />
              <mxPoint x="-1250" y="810" />
              <mxPoint x="320" y="810" />
              <mxPoint x="320" y="940" />
              <mxPoint x="800" y="940" />
            </Array>
          </mxGeometry>
        </mxCell>
        <mxCell id="FBaTR2dOqeXt97CUkfPk-139" style="edgeStyle=orthogonalEdgeStyle;rounded=0;orthogonalLoop=1;jettySize=auto;html=1;exitX=1;exitY=0.5;exitDx=0;exitDy=0;entryX=0.5;entryY=0;entryDx=0;entryDy=0;fillColor=#f8cecc;strokeColor=#b85450;" edge="1" parent="1" source="FBaTR2dOqeXt97CUkfPk-61" target="FBaTR2dOqeXt97CUkfPk-13">
          <mxGeometry relative="1" as="geometry">
            <Array as="points">
              <mxPoint x="1480" y="2458" />
              <mxPoint x="1480" y="970" />
              <mxPoint x="800" y="970" />
            </Array>
          </mxGeometry>
        </mxCell>
        <mxCell id="FBaTR2dOqeXt97CUkfPk-140" style="edgeStyle=orthogonalEdgeStyle;rounded=0;orthogonalLoop=1;jettySize=auto;html=1;exitX=1;exitY=0.5;exitDx=0;exitDy=0;entryX=0.5;entryY=1;entryDx=0;entryDy=0;fillColor=#f5f5f5;strokeColor=#666666;" edge="1" parent="1" source="FBaTR2dOqeXt97CUkfPk-17" target="FBaTR2dOqeXt97CUkfPk-7">
          <mxGeometry relative="1" as="geometry">
            <Array as="points">
              <mxPoint x="1510" y="1575" />
              <mxPoint x="1510" y="790" />
              <mxPoint x="800" y="790" />
            </Array>
          </mxGeometry>
        </mxCell>
        <mxCell id="FBaTR2dOqeXt97CUkfPk-141" style="edgeStyle=orthogonalEdgeStyle;rounded=0;orthogonalLoop=1;jettySize=auto;html=1;exitX=1;exitY=0.5;exitDx=0;exitDy=0;entryX=0.5;entryY=0;entryDx=0;entryDy=0;fillColor=#f8cecc;strokeColor=#b85450;" edge="1" parent="1" source="FBaTR2dOqeXt97CUkfPk-111" target="FBaTR2dOqeXt97CUkfPk-13">
          <mxGeometry relative="1" as="geometry">
            <Array as="points">
              <mxPoint x="350" y="1575" />
              <mxPoint x="350" y="970" />
              <mxPoint x="800" y="970" />
            </Array>
          </mxGeometry>
        </mxCell>
        <mxCell id="FBaTR2dOqeXt97CUkfPk-142" value="&lt;h1&gt;Settings - Graphics&lt;br&gt;&lt;/h1&gt;&lt;p&gt;The graphics settings&lt;br&gt;&lt;/p&gt;" style="text;html=1;strokeColor=#BD7000;fillColor=#f0a30a;spacing=5;spacingTop=-20;whiteSpace=wrap;overflow=hidden;rounded=0;fontColor=#000000;" vertex="1" parent="1">
          <mxGeometry x="2800" y="1080" width="230" height="120" as="geometry" />
        </mxCell>
        <mxCell id="FBaTR2dOqeXt97CUkfPk-143" value="" style="swimlane;startSize=0;fillColor=#f0a30a;strokeColor=#BD7000;fontColor=#000000;" vertex="1" parent="1">
          <mxGeometry x="2000" y="1080" width="800" height="600" as="geometry" />
        </mxCell>
        <mxCell id="FBaTR2dOqeXt97CUkfPk-145" value="General" style="text;html=1;align=center;verticalAlign=middle;whiteSpace=wrap;rounded=0;fontFamily=Special Elite;fontSource=https%3A%2F%2Ffonts.googleapis.com%2Fcss%3Ffamily%3DSpecial%2BElite;fontSize=28;" vertex="1" parent="FBaTR2dOqeXt97CUkfPk-143">
          <mxGeometry x="90" y="20" width="140" height="40" as="geometry" />
        </mxCell>
        <mxCell id="FBaTR2dOqeXt97CUkfPk-146" value="Controls" style="text;html=1;strokeColor=none;fillColor=none;align=center;verticalAlign=middle;whiteSpace=wrap;rounded=0;fontFamily=Special Elite;fontSource=https%3A%2F%2Ffonts.googleapis.com%2Fcss%3Ffamily%3DSpecial%2BElite;fontSize=28;" vertex="1" parent="FBaTR2dOqeXt97CUkfPk-143">
          <mxGeometry x="570" y="20" width="140" height="40" as="geometry" />
        </mxCell>
        <mxCell id="FBaTR2dOqeXt97CUkfPk-147" value="Exit" style="text;html=1;strokeColor=none;fillColor=none;align=right;verticalAlign=middle;whiteSpace=wrap;rounded=0;fontFamily=Special Elite;fontSource=https%3A%2F%2Ffonts.googleapis.com%2Fcss%3Ffamily%3DSpecial%2BElite;fontSize=29;" vertex="1" parent="FBaTR2dOqeXt97CUkfPk-143">
          <mxGeometry x="670" y="560" width="115" height="30" as="geometry" />
        </mxCell>
        <mxCell id="FBaTR2dOqeXt97CUkfPk-150" style="edgeStyle=orthogonalEdgeStyle;rounded=0;orthogonalLoop=1;jettySize=auto;html=1;exitX=0.5;exitY=0;exitDx=0;exitDy=0;entryX=0;entryY=0.5;entryDx=0;entryDy=0;fillColor=#f0a30a;strokeColor=#BD7000;" edge="1" parent="FBaTR2dOqeXt97CUkfPk-143" source="FBaTR2dOqeXt97CUkfPk-148" target="FBaTR2dOqeXt97CUkfPk-143">
          <mxGeometry relative="1" as="geometry">
            <Array as="points">
              <mxPoint x="320" y="-30" />
              <mxPoint x="-30" y="-30" />
              <mxPoint x="-30" y="300" />
            </Array>
          </mxGeometry>
        </mxCell>
        <mxCell id="FBaTR2dOqeXt97CUkfPk-148" value="&lt;div&gt;Graphics&lt;/div&gt;" style="text;html=1;strokeColor=none;fillColor=none;align=center;verticalAlign=middle;whiteSpace=wrap;rounded=0;fontFamily=Special Elite;fontSource=https%3A%2F%2Ffonts.googleapis.com%2Fcss%3Ffamily%3DSpecial%2BElite;fontSize=28;" vertex="1" parent="FBaTR2dOqeXt97CUkfPk-143">
          <mxGeometry x="250" y="20" width="140" height="40" as="geometry" />
        </mxCell>
        <mxCell id="FBaTR2dOqeXt97CUkfPk-149" value="Audio" style="text;html=1;strokeColor=none;fillColor=none;align=center;verticalAlign=middle;whiteSpace=wrap;rounded=0;fontFamily=Special Elite;fontSource=https%3A%2F%2Ffonts.googleapis.com%2Fcss%3Ffamily%3DSpecial%2BElite;fontSize=28;" vertex="1" parent="FBaTR2dOqeXt97CUkfPk-143">
          <mxGeometry x="410" y="20" width="140" height="40" as="geometry" />
        </mxCell>
        <mxCell id="FBaTR2dOqeXt97CUkfPk-151" style="edgeStyle=orthogonalEdgeStyle;rounded=0;orthogonalLoop=1;jettySize=auto;html=1;exitX=0.5;exitY=0;exitDx=0;exitDy=0;entryX=0;entryY=0.5;entryDx=0;entryDy=0;fillColor=#6d8764;strokeColor=#3A5431;" edge="1" parent="1" source="FBaTR2dOqeXt97CUkfPk-145" target="FBaTR2dOqeXt97CUkfPk-126">
          <mxGeometry relative="1" as="geometry">
            <Array as="points">
              <mxPoint x="2160" y="790" />
              <mxPoint x="1960" y="790" />
              <mxPoint x="1960" y="460" />
            </Array>
          </mxGeometry>
        </mxCell>
        <mxCell id="FBaTR2dOqeXt97CUkfPk-152" style="edgeStyle=orthogonalEdgeStyle;rounded=0;orthogonalLoop=1;jettySize=auto;html=1;exitX=0.5;exitY=0;exitDx=0;exitDy=0;entryX=0.5;entryY=0;entryDx=0;entryDy=0;fillColor=#f0a30a;strokeColor=#BD7000;" edge="1" parent="1" source="FBaTR2dOqeXt97CUkfPk-131" target="FBaTR2dOqeXt97CUkfPk-143">
          <mxGeometry relative="1" as="geometry">
            <Array as="points">
              <mxPoint x="2320" y="90" />
              <mxPoint x="1930" y="90" />
              <mxPoint x="1930" y="820" />
              <mxPoint x="2400" y="820" />
            </Array>
          </mxGeometry>
        </mxCell>
        <mxCell id="FBaTR2dOqeXt97CUkfPk-153" value="&lt;h1&gt;Settings - Audio&lt;br&gt;&lt;/h1&gt;&lt;p&gt;The audio settings&lt;br&gt;&lt;/p&gt;" style="text;html=1;strokeColor=#314354;fillColor=#647687;spacing=5;spacingTop=-20;whiteSpace=wrap;overflow=hidden;rounded=0;fontColor=#ffffff;" vertex="1" parent="1">
          <mxGeometry x="2800" y="1960" width="230" height="120" as="geometry" />
        </mxCell>
        <mxCell id="FBaTR2dOqeXt97CUkfPk-154" value="" style="swimlane;startSize=0;fillColor=#647687;strokeColor=#314354;fontColor=#ffffff;" vertex="1" parent="1">
          <mxGeometry x="2000" y="1960" width="800" height="600" as="geometry" />
        </mxCell>
        <mxCell id="FBaTR2dOqeXt97CUkfPk-155" value="General" style="text;html=1;align=center;verticalAlign=middle;whiteSpace=wrap;rounded=0;fontFamily=Special Elite;fontSource=https%3A%2F%2Ffonts.googleapis.com%2Fcss%3Ffamily%3DSpecial%2BElite;fontSize=28;" vertex="1" parent="FBaTR2dOqeXt97CUkfPk-154">
          <mxGeometry x="90" y="20" width="140" height="40" as="geometry" />
        </mxCell>
        <mxCell id="FBaTR2dOqeXt97CUkfPk-156" value="Controls" style="text;html=1;strokeColor=none;fillColor=none;align=center;verticalAlign=middle;whiteSpace=wrap;rounded=0;fontFamily=Special Elite;fontSource=https%3A%2F%2Ffonts.googleapis.com%2Fcss%3Ffamily%3DSpecial%2BElite;fontSize=28;" vertex="1" parent="FBaTR2dOqeXt97CUkfPk-154">
          <mxGeometry x="570" y="20" width="140" height="40" as="geometry" />
        </mxCell>
        <mxCell id="FBaTR2dOqeXt97CUkfPk-157" value="Exit" style="text;html=1;strokeColor=none;fillColor=none;align=right;verticalAlign=middle;whiteSpace=wrap;rounded=0;fontFamily=Special Elite;fontSource=https%3A%2F%2Ffonts.googleapis.com%2Fcss%3Ffamily%3DSpecial%2BElite;fontSize=29;" vertex="1" parent="FBaTR2dOqeXt97CUkfPk-154">
          <mxGeometry x="670" y="560" width="115" height="30" as="geometry" />
        </mxCell>
        <mxCell id="FBaTR2dOqeXt97CUkfPk-158" style="edgeStyle=orthogonalEdgeStyle;rounded=0;orthogonalLoop=1;jettySize=auto;html=1;exitX=0.5;exitY=0;exitDx=0;exitDy=0;entryX=0;entryY=0.5;entryDx=0;entryDy=0;fillColor=#647687;strokeColor=#314354;" edge="1" parent="FBaTR2dOqeXt97CUkfPk-154" source="FBaTR2dOqeXt97CUkfPk-160" target="FBaTR2dOqeXt97CUkfPk-154">
          <mxGeometry relative="1" as="geometry">
            <Array as="points">
              <mxPoint x="480" y="-30" />
              <mxPoint x="-30" y="-30" />
              <mxPoint x="-30" y="300" />
            </Array>
          </mxGeometry>
        </mxCell>
        <mxCell id="FBaTR2dOqeXt97CUkfPk-159" value="&lt;div&gt;Graphics&lt;/div&gt;" style="text;html=1;strokeColor=none;fillColor=none;align=center;verticalAlign=middle;whiteSpace=wrap;rounded=0;fontFamily=Special Elite;fontSource=https%3A%2F%2Ffonts.googleapis.com%2Fcss%3Ffamily%3DSpecial%2BElite;fontSize=28;" vertex="1" parent="FBaTR2dOqeXt97CUkfPk-154">
          <mxGeometry x="250" y="20" width="140" height="40" as="geometry" />
        </mxCell>
        <mxCell id="FBaTR2dOqeXt97CUkfPk-160" value="Audio" style="text;html=1;strokeColor=none;fillColor=none;align=center;verticalAlign=middle;whiteSpace=wrap;rounded=0;fontFamily=Special Elite;fontSource=https%3A%2F%2Ffonts.googleapis.com%2Fcss%3Ffamily%3DSpecial%2BElite;fontSize=28;" vertex="1" parent="FBaTR2dOqeXt97CUkfPk-154">
          <mxGeometry x="410" y="20" width="140" height="40" as="geometry" />
        </mxCell>
        <mxCell id="FBaTR2dOqeXt97CUkfPk-163" style="edgeStyle=orthogonalEdgeStyle;rounded=0;orthogonalLoop=1;jettySize=auto;html=1;exitX=0.5;exitY=0;exitDx=0;exitDy=0;entryX=0;entryY=0.5;entryDx=0;entryDy=0;fillColor=#647687;strokeColor=#314354;" edge="1" parent="1" source="FBaTR2dOqeXt97CUkfPk-149" target="FBaTR2dOqeXt97CUkfPk-154">
          <mxGeometry relative="1" as="geometry">
            <Array as="points">
              <mxPoint x="2480" y="1010" />
              <mxPoint x="1890" y="1010" />
              <mxPoint x="1890" y="2260" />
            </Array>
          </mxGeometry>
        </mxCell>
        <mxCell id="FBaTR2dOqeXt97CUkfPk-164" style="edgeStyle=orthogonalEdgeStyle;rounded=0;orthogonalLoop=1;jettySize=auto;html=1;exitX=0.5;exitY=0;exitDx=0;exitDy=0;entryX=0;entryY=0.5;entryDx=0;entryDy=0;fillColor=#647687;strokeColor=#314354;" edge="1" parent="1" source="FBaTR2dOqeXt97CUkfPk-136" target="FBaTR2dOqeXt97CUkfPk-154">
          <mxGeometry relative="1" as="geometry">
            <Array as="points">
              <mxPoint x="2480" y="60" />
              <mxPoint x="1890" y="60" />
              <mxPoint x="1890" y="2260" />
            </Array>
          </mxGeometry>
        </mxCell>
        <mxCell id="FBaTR2dOqeXt97CUkfPk-165" style="edgeStyle=orthogonalEdgeStyle;rounded=0;orthogonalLoop=1;jettySize=auto;html=1;exitX=0.5;exitY=0;exitDx=0;exitDy=0;entryX=0;entryY=0.5;entryDx=0;entryDy=0;fillColor=#f0a30a;strokeColor=#BD7000;" edge="1" parent="1" source="FBaTR2dOqeXt97CUkfPk-159" target="FBaTR2dOqeXt97CUkfPk-143">
          <mxGeometry relative="1" as="geometry" />
        </mxCell>
        <mxCell id="FBaTR2dOqeXt97CUkfPk-166" style="edgeStyle=orthogonalEdgeStyle;rounded=0;orthogonalLoop=1;jettySize=auto;html=1;exitX=0.5;exitY=0;exitDx=0;exitDy=0;entryX=0;entryY=0.5;entryDx=0;entryDy=0;fillColor=#6d8764;strokeColor=#3A5431;" edge="1" parent="1" source="FBaTR2dOqeXt97CUkfPk-155" target="FBaTR2dOqeXt97CUkfPk-126">
          <mxGeometry relative="1" as="geometry">
            <Array as="points">
              <mxPoint x="2160" y="1880" />
              <mxPoint x="1960" y="1880" />
              <mxPoint x="1960" y="460" />
            </Array>
          </mxGeometry>
        </mxCell>
        <mxCell id="FBaTR2dOqeXt97CUkfPk-167" style="edgeStyle=orthogonalEdgeStyle;rounded=0;orthogonalLoop=1;jettySize=auto;html=1;exitX=1;exitY=0.25;exitDx=0;exitDy=0;entryX=0.5;entryY=1;entryDx=0;entryDy=0;fillColor=#f5f5f5;strokeColor=#666666;" edge="1" parent="1" source="FBaTR2dOqeXt97CUkfPk-157" target="FBaTR2dOqeXt97CUkfPk-7">
          <mxGeometry relative="1" as="geometry">
            <Array as="points">
              <mxPoint x="2820" y="2528" />
              <mxPoint x="2820" y="2590" />
              <mxPoint x="1680" y="2590" />
              <mxPoint x="1680" y="790" />
              <mxPoint x="800" y="790" />
            </Array>
          </mxGeometry>
        </mxCell>
        <mxCell id="FBaTR2dOqeXt97CUkfPk-168" style="edgeStyle=orthogonalEdgeStyle;rounded=0;orthogonalLoop=1;jettySize=auto;html=1;exitX=1;exitY=0.5;exitDx=0;exitDy=0;fillColor=#f5f5f5;strokeColor=#666666;" edge="1" parent="1" source="FBaTR2dOqeXt97CUkfPk-147" target="FBaTR2dOqeXt97CUkfPk-7">
          <mxGeometry relative="1" as="geometry">
            <mxPoint x="800" y="755" as="targetPoint" />
            <Array as="points">
              <mxPoint x="2785" y="1710" />
              <mxPoint x="1680" y="1710" />
              <mxPoint x="1680" y="790" />
              <mxPoint x="801" y="790" />
            </Array>
          </mxGeometry>
        </mxCell>
        <mxCell id="FBaTR2dOqeXt97CUkfPk-169" value="" style="endArrow=none;html=1;rounded=0;" edge="1" parent="1">
          <mxGeometry width="50" height="50" relative="1" as="geometry">
            <mxPoint x="-1450" y="2040" as="sourcePoint" />
            <mxPoint x="-1460" y="400" as="targetPoint" />
            <Array as="points">
              <mxPoint x="-1460" y="1130" />
            </Array>
          </mxGeometry>
        </mxCell>
      </root>
    </mxGraphModel>
  </diagram>
</mxfile>
